<svg id="svg" version="1.1" xmlns="http://www.w3.org/2000/svg" xmlns:xlink="http://www.w3.org/1999/xlink" width="400" height="400" viewBox="0, 0, 400,400"><g id="svgg"><path id="path0" d="M187.600 47.000 L 187.600 50.000 200.000 50.000 L 212.400 50.000 212.400 47.000 L 212.400 44.000 200.000 44.000 L 187.600 44.000 187.600 47.000 M181.483 50.251 C 181.327 50.406,181.200 54.643,181.200 59.667 L 181.200 68.800 178.200 68.800 L 175.200 68.800 175.200 75.000 L 175.200 81.200 172.000 81.200 L 168.800 81.200 168.800 90.600 L 168.800 100.000 165.810 100.000 L 162.820 100.000 162.710 106.300 L 162.600 112.600 159.500 112.717 L 156.400 112.834 156.400 115.817 L 156.400 118.800 147.000 118.800 L 137.600 118.800 137.600 121.800 L 137.600 124.800 147.000 124.800 L 156.400 124.800 156.400 128.000 L 156.400 131.200 159.400 131.200 L 162.400 131.200 162.400 125.000 L 162.400 118.800 165.600 118.800 L 168.800 118.800 168.800 109.400 L 168.800 100.000 171.800 100.000 L 174.800 100.000 174.800 93.800 L 174.800 87.600 178.000 87.600 L 181.200 87.600 181.200 81.200 L 181.200 74.800 184.406 74.800 L 187.612 74.800 187.506 62.500 L 187.400 50.200 184.583 50.084 C 183.033 50.020,181.638 50.095,181.483 50.251 M212.800 62.400 L 212.800 74.800 215.800 74.800 L 218.800 74.800 218.800 81.200 L 218.800 87.600 222.000 87.600 L 225.200 87.600 225.200 93.800 L 225.200 100.000 228.193 100.000 L 231.185 100.000 231.293 109.300 L 231.400 118.600 234.500 118.717 L 237.600 118.834 237.600 125.017 L 237.600 131.200 240.600 131.200 L 243.600 131.200 243.600 128.000 L 243.600 124.800 249.800 124.800 L 256.000 124.800 256.000 121.800 L 256.000 118.800 249.800 118.800 L 243.600 118.800 243.600 115.817 L 243.600 112.834 240.500 112.717 L 237.400 112.600 237.290 106.300 L 237.180 100.000 234.190 100.000 L 231.200 100.000 231.200 90.600 L 231.200 81.200 228.000 81.200 L 224.800 81.200 224.800 75.000 L 224.800 68.800 221.800 68.800 L 218.800 68.800 218.800 59.400 L 218.800 50.000 215.800 50.000 L 212.800 50.000 212.800 62.400 M131.200 128.200 L 131.200 131.200 128.200 131.200 L 125.200 131.200 125.200 146.800 L 125.200 162.400 137.600 162.400 L 150.000 162.400 150.000 184.200 L 150.000 206.000 153.200 206.000 L 156.400 206.000 156.400 218.600 L 156.400 231.200 159.600 231.200 L 162.800 231.200 162.800 234.182 L 162.800 237.165 165.700 237.282 L 168.600 237.400 168.717 240.500 L 168.834 243.600 175.017 243.600 L 181.200 243.600 181.200 240.600 L 181.200 237.600 178.000 237.600 L 174.800 237.600 174.800 234.400 L 174.800 231.200 171.800 231.200 L 168.800 231.200 168.800 228.200 L 168.800 225.200 165.600 225.200 L 162.400 225.200 162.400 212.600 L 162.400 200.000 159.196 200.000 L 155.992 200.000 156.096 181.300 L 156.200 162.600 162.500 162.490 L 168.800 162.380 168.800 159.190 L 168.800 156.000 171.800 156.000 L 174.800 156.000 174.800 153.000 L 174.800 150.000 178.000 150.000 L 181.200 150.000 181.200 153.000 L 181.200 156.000 206.200 156.000 L 231.200 156.000 231.200 159.200 L 231.200 162.400 237.600 162.400 L 244.000 162.400 244.000 181.200 L 244.000 200.000 240.800 200.000 L 237.600 200.000 237.600 212.600 L 237.600 225.200 234.400 225.200 L 231.200 225.200 231.200 228.200 L 231.200 231.200 228.200 231.200 L 225.200 231.200 225.200 234.400 L 225.200 237.600 222.000 237.600 L 218.800 237.600 218.800 240.600 L 218.800 243.600 224.983 243.600 L 231.166 243.600 231.283 240.500 L 231.400 237.400 234.283 237.283 L 237.166 237.166 237.283 234.283 L 237.400 231.400 240.494 231.283 L 243.589 231.167 243.694 218.683 L 243.800 206.200 246.900 206.083 L 250.000 205.966 250.000 184.183 L 250.000 162.400 259.405 162.400 L 268.809 162.400 268.705 146.900 L 268.600 131.400 265.706 131.283 L 262.811 131.165 262.706 143.683 L 262.600 156.200 250.117 156.306 L 237.634 156.411 237.517 153.306 L 237.400 150.200 234.300 150.083 L 231.200 149.966 231.200 143.783 L 231.200 137.600 228.217 137.600 L 225.234 137.600 225.117 140.700 L 225.000 143.800 221.900 143.917 L 218.800 144.034 218.800 147.017 L 218.800 150.000 203.200 150.000 L 187.600 150.000 187.600 147.010 L 187.600 144.020 181.300 143.910 L 175.000 143.800 174.883 140.700 L 174.766 137.600 171.800 137.600 L 168.834 137.600 168.717 134.500 L 168.600 131.400 165.700 131.282 L 162.800 131.165 162.800 137.382 L 162.800 143.600 165.800 143.600 L 168.800 143.600 168.800 146.800 L 168.800 150.000 165.817 150.000 L 162.834 150.000 162.717 153.100 L 162.600 156.200 146.900 156.305 L 131.200 156.409 131.200 143.805 L 131.200 131.200 134.400 131.200 L 137.600 131.200 137.600 128.200 L 137.600 125.200 134.400 125.200 L 131.200 125.200 131.200 128.200 M256.400 128.200 L 256.400 131.200 259.400 131.200 L 262.400 131.200 262.400 128.200 L 262.400 125.200 259.400 125.200 L 256.400 125.200 256.400 128.200 M231.374 131.724 C 231.255 132.032,231.213 133.435,231.279 134.842 L 231.400 137.400 234.400 137.400 L 237.400 137.400 237.400 134.400 L 237.400 131.400 234.494 131.282 C 232.291 131.193,231.536 131.300,231.374 131.724 M181.200 247.000 L 181.200 250.000 184.400 250.000 L 187.600 250.000 187.600 262.400 L 187.600 274.800 190.600 274.800 L 193.600 274.800 193.600 262.400 L 193.600 250.000 200.000 250.000 L 206.400 250.000 206.400 262.383 L 206.400 274.766 209.500 274.883 L 212.600 275.000 212.717 278.100 L 212.834 281.200 215.817 281.200 L 218.800 281.200 218.800 287.383 L 218.800 293.566 221.900 293.683 L 225.000 293.800 225.104 312.500 L 225.208 331.200 228.204 331.200 L 231.200 331.200 231.200 309.400 L 231.200 287.600 228.000 287.600 L 224.800 287.600 224.800 281.400 L 224.800 275.200 221.800 275.200 L 218.800 275.200 218.800 272.000 L 218.800 268.800 215.600 268.800 L 212.400 268.800 212.400 259.400 L 212.400 250.000 215.600 250.000 L 218.800 250.000 218.800 247.000 L 218.800 244.000 200.000 244.000 L 181.200 244.000 181.200 247.000 M194.000 284.400 L 194.000 293.600 200.000 293.600 L 206.000 293.600 206.000 290.600 L 206.000 287.600 203.000 287.600 L 200.000 287.600 200.000 281.400 L 200.000 275.200 197.000 275.200 L 194.000 275.200 194.000 284.400 M206.400 309.400 L 206.400 324.800 209.400 324.800 L 212.400 324.800 212.400 309.400 L 212.400 294.000 209.400 294.000 L 206.400 294.000 206.400 309.400 M212.800 337.600 L 212.800 350.000 215.800 350.000 L 218.800 350.000 218.800 359.400 L 218.800 368.800 228.000 368.800 L 237.200 368.800 237.200 349.982 L 237.200 331.165 234.300 331.282 L 231.400 331.400 231.295 347.117 L 231.191 362.833 228.095 362.717 L 225.000 362.600 224.890 356.300 L 224.780 350.000 221.790 350.000 L 218.800 350.000 218.800 337.600 L 218.800 325.200 215.800 325.200 L 212.800 325.200 212.800 337.600 " stroke="none" fill="#040404" fill-rule="evenodd"></path><path id="path1" d="M187.556 59.300 L 187.712 75.200 184.456 75.200 L 181.200 75.200 181.200 81.400 L 181.200 87.600 178.200 87.600 L 175.200 87.600 175.200 93.800 L 175.200 100.000 172.000 100.000 L 168.800 100.000 168.798 92.100 C 168.797 87.755,168.680 82.175,168.537 79.700 L 168.278 75.200 165.539 75.200 L 162.800 75.200 162.800 78.200 L 162.800 81.200 165.535 81.200 L 168.270 81.200 168.535 95.300 C 168.680 103.055,168.799 111.515,168.799 114.100 L 168.800 118.800 165.800 118.800 L 162.800 118.800 162.800 125.000 L 162.800 131.200 165.800 131.200 L 168.800 131.200 168.800 134.200 L 168.800 137.200 172.000 137.200 L 175.200 137.200 175.200 140.400 L 175.200 143.600 181.400 143.600 L 187.600 143.600 187.600 146.800 L 187.600 150.000 202.983 150.000 L 218.366 150.000 218.483 146.900 L 218.600 143.800 221.700 143.683 L 224.800 143.566 224.800 140.383 L 224.800 137.200 228.000 137.200 L 231.200 137.200 231.200 134.200 L 231.200 131.200 234.200 131.200 L 237.200 131.200 237.200 125.000 L 237.200 118.800 234.152 118.800 L 231.103 118.800 231.282 100.100 C 231.381 89.815,231.399 85.585,231.324 90.700 L 231.186 100.000 227.993 100.000 L 224.800 100.000 224.800 93.800 L 224.800 87.600 221.800 87.600 L 218.800 87.600 218.800 81.400 L 218.800 75.200 215.600 75.200 L 212.400 75.200 212.400 62.600 L 212.400 50.000 209.417 50.000 L 206.434 50.000 206.317 53.100 L 206.200 56.200 200.000 56.200 L 193.800 56.200 193.683 53.100 L 193.566 50.000 190.599 50.000 L 187.632 50.000 187.516 46.700 C 187.452 44.885,187.470 50.555,187.556 59.300 M244.000 47.000 L 244.000 50.000 247.000 50.000 L 250.000 50.000 250.000 47.000 L 250.000 44.000 247.000 44.000 L 244.000 44.000 244.000 47.000 M156.400 53.200 L 156.400 56.000 159.400 56.000 L 162.400 56.000 162.400 53.200 L 162.400 50.400 159.400 50.400 L 156.400 50.400 156.400 53.200 M231.600 53.400 L 231.600 56.400 228.400 56.400 L 225.200 56.400 225.200 59.400 L 225.200 62.400 231.200 62.400 L 237.200 62.400 237.200 59.200 L 237.200 56.000 240.400 56.000 L 243.600 56.000 243.600 53.200 L 243.600 50.400 237.600 50.400 L 231.600 50.400 231.600 53.400 M162.800 59.400 L 162.800 62.400 165.800 62.400 L 168.800 62.400 168.800 65.339 L 168.800 68.278 173.300 68.537 C 175.775 68.680,178.565 68.797,179.500 68.798 L 181.200 68.800 181.200 65.800 L 181.200 62.800 178.000 62.800 L 174.800 62.800 174.800 59.600 L 174.800 56.400 168.800 56.400 L 162.800 56.400 162.800 59.400 M218.800 65.800 L 218.800 68.800 222.000 68.800 L 225.200 68.800 225.200 71.800 L 225.200 74.800 234.400 74.800 L 243.600 74.800 243.600 71.807 L 243.600 68.815 234.300 68.707 L 225.000 68.600 224.882 65.700 L 224.765 62.800 221.782 62.800 L 218.800 62.800 218.800 65.800 M156.400 84.400 L 156.400 87.200 159.400 87.200 L 162.400 87.200 162.400 84.400 L 162.400 81.600 159.400 81.600 L 156.400 81.600 156.400 84.400 M187.281 96.900 L 187.363 100.200 187.498 96.883 L 187.633 93.567 190.716 93.683 L 193.800 93.800 193.800 100.000 L 193.800 106.200 187.500 106.310 L 181.200 106.420 181.200 100.010 L 181.200 93.600 184.200 93.600 L 187.200 93.600 187.281 96.900 M218.800 100.012 L 218.800 106.400 212.600 106.400 L 206.400 106.400 206.400 104.863 C 206.400 104.017,206.283 101.142,206.139 98.473 L 205.878 93.621 212.339 93.623 L 218.800 93.625 218.800 100.012 M137.368 118.940 C 137.254 119.237,137.224 120.722,137.302 122.240 L 137.443 125.000 137.522 121.907 L 137.600 118.815 146.900 118.700 L 156.200 118.585 146.887 118.492 C 139.377 118.418,137.535 118.504,137.368 118.940 M246.900 118.697 C 248.605 118.772,251.395 118.772,253.100 118.697 C 254.805 118.622,253.410 118.561,250.000 118.561 C 246.590 118.561,245.195 118.622,246.900 118.697 M137.600 128.183 L 137.600 131.166 134.500 131.283 L 131.400 131.400 131.411 134.500 C 131.417 136.205,131.462 141.740,131.511 146.800 L 131.600 156.000 147.000 156.000 L 162.400 156.000 162.400 153.000 L 162.400 150.000 165.400 150.000 L 168.400 150.000 168.400 147.000 L 168.400 144.000 165.400 144.000 L 162.400 144.000 162.400 137.600 L 162.400 131.200 159.200 131.200 L 156.000 131.200 156.000 128.200 L 156.000 125.200 146.800 125.200 L 137.600 125.200 137.600 128.183 M244.000 128.200 L 244.000 131.200 240.800 131.200 L 237.600 131.200 237.600 134.400 L 237.600 137.600 234.339 137.600 L 231.078 137.600 231.337 142.100 C 231.480 144.575,231.597 147.365,231.598 148.300 L 231.600 150.000 234.600 150.000 L 237.600 150.000 237.600 153.000 L 237.600 156.000 250.000 156.000 L 262.400 156.000 262.400 143.600 L 262.400 131.200 259.200 131.200 L 256.000 131.200 256.000 128.200 L 256.000 125.200 250.000 125.200 L 244.000 125.200 244.000 128.200 M175.200 153.200 L 175.200 156.400 172.000 156.400 L 168.800 156.400 168.800 159.600 L 168.800 162.800 162.600 162.800 L 156.400 162.800 156.400 181.400 L 156.400 200.000 159.600 200.000 L 162.800 200.000 162.800 212.400 L 162.800 224.800 165.800 224.800 L 168.800 224.800 168.800 228.000 L 168.800 231.200 172.000 231.200 L 175.200 231.200 175.200 234.183 L 175.200 237.166 178.300 237.283 L 181.400 237.400 181.517 240.500 L 181.634 243.600 200.000 243.600 L 218.366 243.600 218.483 240.500 L 218.600 237.400 221.700 237.283 L 224.800 237.166 224.800 234.183 L 224.800 231.200 228.000 231.200 L 231.200 231.200 231.200 228.000 L 231.200 224.800 234.200 224.800 L 237.200 224.800 237.200 212.400 L 237.200 200.000 240.400 200.000 L 243.600 200.000 243.600 181.400 L 243.600 162.800 237.400 162.800 L 231.200 162.800 231.200 159.600 L 231.200 156.400 206.200 156.400 L 181.200 156.400 181.200 153.200 L 181.200 150.000 178.200 150.000 L 175.200 150.000 175.200 153.200 M157.911 231.493 C 158.851 231.578,160.291 231.577,161.111 231.491 C 161.930 231.405,161.160 231.336,159.400 231.337 C 157.640 231.339,156.970 231.409,157.911 231.493 M239.111 231.493 C 240.051 231.578,241.491 231.577,242.311 231.491 C 243.130 231.405,242.360 231.336,240.600 231.337 C 238.840 231.339,238.170 231.409,239.111 231.493 M168.537 240.600 C 168.539 242.360,168.609 243.030,168.693 242.089 C 168.778 241.149,168.777 239.709,168.691 238.889 C 168.605 238.070,168.536 238.840,168.537 240.600 M231.337 240.600 C 231.339 242.360,231.409 243.030,231.493 242.089 C 231.578 241.149,231.577 239.709,231.491 238.889 C 231.405 238.070,231.336 238.840,231.337 240.600 M187.378 262.600 C 187.379 269.640,187.433 272.464,187.499 268.875 C 187.566 265.286,187.566 259.526,187.499 256.075 C 187.433 252.624,187.378 255.560,187.378 262.600 M214.311 268.693 C 215.251 268.778,216.691 268.777,217.511 268.691 C 218.330 268.605,217.560 268.536,215.800 268.537 C 214.040 268.539,213.370 268.609,214.311 268.693 M228.195 287.490 L 231.193 287.634 231.302 309.317 L 231.410 331.000 231.405 309.200 L 231.400 287.400 228.299 287.373 L 225.197 287.346 228.195 287.490 M218.573 359.400 C 218.573 364.680,218.630 366.785,218.699 364.077 C 218.768 361.369,218.768 357.049,218.699 354.477 C 218.629 351.905,218.572 354.120,218.573 359.400 " stroke="none" fill="#dcd4bc" fill-rule="evenodd"></path><path id="path2" d="M0.000 200.000 L 0.000 400.000 200.000 400.000 L 400.000 400.000 400.000 200.000 L 400.000 0.000 200.000 0.000 L 0.000 0.000 0.000 200.000 M212.800 46.800 L 212.800 50.000 215.800 50.000 L 218.800 50.000 218.800 56.400 L 218.800 62.800 221.782 62.800 L 224.765 62.800 224.882 65.700 L 225.000 68.600 234.300 68.707 L 243.600 68.815 243.600 71.807 L 243.600 74.800 234.400 74.800 L 225.200 74.800 225.200 78.000 L 225.200 81.200 228.400 81.200 L 231.600 81.200 231.600 90.600 L 231.600 100.000 234.600 100.000 L 237.600 100.000 237.600 106.200 L 237.600 112.400 240.800 112.400 L 244.000 112.400 244.000 115.390 L 244.000 118.379 250.100 118.490 L 256.200 118.600 256.317 121.700 L 256.434 124.800 259.617 124.800 L 262.800 124.800 262.800 128.000 L 262.800 131.200 265.800 131.200 L 268.800 131.200 268.800 147.000 L 268.800 162.800 259.400 162.800 L 250.000 162.800 250.000 184.600 L 250.000 206.400 247.006 206.400 L 244.011 206.400 243.906 218.900 L 243.800 231.400 240.700 231.517 L 237.600 231.634 237.600 234.617 L 237.600 237.600 234.617 237.600 L 231.634 237.600 231.517 240.700 L 231.400 243.800 225.100 243.910 L 218.800 244.020 218.800 247.010 L 218.800 250.000 215.800 250.000 L 212.800 250.000 212.800 259.200 L 212.800 268.400 215.800 268.400 L 218.800 268.400 218.800 271.600 L 218.800 274.800 222.000 274.800 L 225.200 274.800 225.200 280.983 L 225.200 287.166 228.300 287.283 L 231.400 287.400 231.503 309.300 L 231.607 331.200 234.603 331.200 L 237.600 331.200 237.600 350.000 L 237.600 368.800 228.000 368.800 L 218.400 368.800 218.400 359.400 L 218.400 350.000 215.400 350.000 L 212.400 350.000 212.400 337.600 L 212.400 325.200 209.200 325.200 L 206.000 325.200 206.000 309.600 L 206.000 294.000 199.800 294.000 L 193.600 294.000 193.600 284.600 L 193.600 275.200 190.400 275.200 L 187.200 275.200 187.200 262.600 L 187.200 250.000 184.200 250.000 L 181.200 250.000 181.200 247.010 L 181.200 244.020 174.900 243.910 L 168.600 243.800 168.483 240.700 L 168.366 237.600 165.383 237.600 L 162.400 237.600 162.400 234.617 L 162.400 231.634 159.300 231.517 L 156.200 231.400 156.094 218.900 L 155.989 206.400 152.994 206.400 L 150.000 206.400 150.000 184.600 L 150.000 162.800 137.400 162.800 L 124.800 162.800 124.800 147.000 L 124.800 131.200 128.000 131.200 L 131.200 131.200 131.200 128.000 L 131.200 124.800 134.183 124.800 L 137.166 124.800 137.283 121.700 L 137.400 118.600 146.700 118.493 L 156.000 118.385 156.000 115.393 L 156.000 112.400 159.200 112.400 L 162.400 112.400 162.400 106.200 L 162.400 100.000 165.400 100.000 L 168.400 100.000 168.400 90.600 L 168.400 81.200 165.600 81.200 L 162.800 81.200 162.800 78.200 L 162.800 75.200 165.600 75.200 L 168.400 75.200 168.400 78.200 L 168.400 81.200 171.600 81.200 L 174.800 81.200 174.800 74.800 L 174.800 68.400 171.800 68.400 L 168.800 68.400 168.800 65.400 L 168.800 62.400 165.800 62.400 L 162.800 62.400 162.800 59.400 L 162.800 56.400 168.800 56.400 L 174.800 56.400 174.800 59.600 L 174.800 62.800 178.000 62.800 L 181.200 62.800 181.200 56.400 L 181.200 50.000 184.200 50.000 L 187.200 50.000 187.200 46.800 L 187.200 43.600 200.000 43.600 L 212.800 43.600 212.800 46.800 M250.000 47.000 L 250.000 50.000 247.000 50.000 L 244.000 50.000 244.000 47.000 L 244.000 44.000 247.000 44.000 L 250.000 44.000 250.000 47.000 M162.400 53.200 L 162.400 56.000 159.400 56.000 L 156.400 56.000 156.400 53.200 L 156.400 50.400 159.400 50.400 L 162.400 50.400 162.400 53.200 M243.600 53.200 L 243.600 56.000 240.400 56.000 L 237.200 56.000 237.200 59.200 L 237.200 62.400 231.200 62.400 L 225.200 62.400 225.200 59.400 L 225.200 56.400 228.400 56.400 L 231.600 56.400 231.600 53.400 L 231.600 50.400 237.600 50.400 L 243.600 50.400 243.600 53.200 M162.400 84.400 L 162.400 87.200 159.400 87.200 L 156.400 87.200 156.400 84.400 L 156.400 81.600 159.400 81.600 L 162.400 81.600 162.400 84.400 M181.200 96.800 L 181.200 100.000 184.200 100.000 L 187.200 100.000 187.200 96.800 L 187.200 93.600 184.200 93.600 L 181.200 93.600 181.200 96.800 M206.000 96.800 L 206.000 100.000 209.200 100.000 L 212.400 100.000 212.400 96.800 L 212.400 93.600 209.200 93.600 L 206.000 93.600 206.000 96.800 " stroke="none" fill="#fcfcfc" fill-rule="evenodd"></path><path id="path3" d="M193.700 43.899 C 197.165 43.966,202.835 43.966,206.300 43.899 C 209.765 43.833,206.930 43.778,200.000 43.778 C 193.070 43.778,190.235 43.833,193.700 43.899 M212.591 62.500 L 212.600 75.000 215.600 75.025 L 218.600 75.050 215.706 74.908 L 212.811 74.767 212.697 62.383 L 212.583 50.000 212.591 62.500 M174.962 75.000 C 174.962 78.520,175.024 79.906,175.098 78.081 C 175.172 76.256,175.172 73.376,175.097 71.681 C 175.022 69.986,174.961 71.480,174.962 75.000 M224.962 75.000 C 224.962 78.520,225.024 79.906,225.098 78.081 C 225.172 76.256,225.172 73.376,225.097 71.681 C 225.022 69.986,224.961 71.480,224.962 75.000 M182.711 75.093 C 183.651 75.178,185.091 75.177,185.911 75.091 C 186.730 75.005,185.960 74.936,184.200 74.937 C 182.440 74.939,181.770 75.009,182.711 75.093 M174.962 93.800 C 174.962 97.320,175.024 98.706,175.098 96.881 C 175.172 95.056,175.172 92.176,175.097 90.481 C 175.022 88.786,174.961 90.280,174.962 93.800 M224.962 93.800 C 224.962 97.320,225.024 98.706,225.098 96.881 C 225.172 95.056,225.172 92.176,225.097 90.481 C 225.022 88.786,224.961 90.280,224.962 93.800 M187.600 97.000 L 187.600 100.000 184.383 100.000 L 181.166 100.000 181.283 103.100 L 181.400 106.200 187.500 106.310 L 193.600 106.421 193.600 100.210 L 193.600 94.000 190.600 94.000 L 187.600 94.000 187.600 97.000 M212.400 97.000 L 212.400 100.000 209.400 100.000 L 206.400 100.000 206.400 103.210 L 206.400 106.421 212.500 106.310 L 218.600 106.200 218.710 100.100 L 218.821 94.000 215.610 94.000 L 212.400 94.000 212.400 97.000 M162.488 106.083 L 162.400 112.366 159.300 112.503 L 156.200 112.639 159.313 112.720 C 163.097 112.817,162.854 113.314,162.700 105.782 L 162.577 99.800 162.488 106.083 M237.384 106.300 L 237.400 112.600 240.400 112.625 L 243.400 112.650 240.510 112.509 L 237.620 112.367 237.494 106.183 L 237.369 99.999 237.384 106.300 M256.080 121.700 L 256.000 124.800 249.800 124.800 L 243.600 124.800 243.680 128.100 L 243.761 131.400 243.897 128.300 L 244.034 125.200 253.317 125.120 C 258.423 125.075,261.212 124.978,259.517 124.903 L 256.433 124.767 256.297 121.683 L 256.161 118.600 256.080 121.700 M137.700 125.099 C 141.165 125.166,146.835 125.166,150.300 125.099 C 153.765 125.033,150.930 124.978,144.000 124.978 C 137.070 124.978,134.235 125.033,137.700 125.099 M162.584 137.500 L 162.600 143.800 165.600 143.825 L 168.600 143.850 165.710 143.709 L 162.820 143.567 162.694 137.383 L 162.569 131.199 162.584 137.500 M262.494 143.494 L 262.400 155.989 249.900 156.100 L 237.400 156.212 249.913 156.306 C 259.678 156.379,262.468 156.289,262.619 155.896 C 262.725 155.619,262.762 149.904,262.700 143.196 L 262.588 131.000 262.494 143.494 M124.982 147.000 C 124.982 155.580,125.035 159.033,125.100 154.674 C 125.164 150.314,125.164 143.294,125.099 139.074 C 125.035 134.853,124.982 138.420,124.982 147.000 M174.973 140.699 L 175.000 143.800 181.200 143.815 L 187.400 143.830 181.317 143.705 L 175.233 143.580 175.090 140.589 L 174.946 137.597 174.973 140.699 M224.878 140.483 L 224.800 143.566 221.700 143.703 L 218.600 143.839 221.713 143.920 C 225.346 144.013,225.298 144.067,225.098 140.160 L 224.957 137.400 224.878 140.483 M162.478 152.895 L 162.400 155.991 146.700 156.100 L 131.000 156.210 146.713 156.305 C 159.596 156.383,162.462 156.303,162.632 155.860 C 162.746 155.563,162.776 154.078,162.698 152.560 L 162.557 149.800 162.478 152.895 M174.878 152.883 L 174.800 155.966 171.700 156.103 L 168.600 156.239 171.713 156.320 C 175.346 156.413,175.298 156.467,175.098 152.560 L 174.957 149.800 174.878 152.883 M193.729 156.300 C 200.730 156.361,212.070 156.361,218.929 156.300 C 225.788 156.238,220.060 156.188,206.200 156.188 C 192.340 156.188,186.728 156.239,193.729 156.300 M243.785 181.200 C 243.785 191.650,243.836 195.925,243.900 190.700 C 243.963 185.475,243.963 176.925,243.900 171.700 C 243.836 166.475,243.785 170.750,243.785 181.200 M156.185 181.400 C 156.185 191.740,156.236 196.027,156.300 190.928 C 156.363 185.828,156.363 177.368,156.300 172.128 C 156.237 166.887,156.185 171.060,156.185 181.400 M151.500 206.293 C 152.435 206.377,153.965 206.377,154.900 206.293 C 155.835 206.209,155.070 206.140,153.200 206.140 C 151.330 206.140,150.565 206.209,151.500 206.293 M245.511 206.293 C 246.451 206.378,247.891 206.377,248.711 206.291 C 249.530 206.205,248.760 206.136,247.000 206.137 C 245.240 206.139,244.570 206.209,245.511 206.293 M163.900 225.093 C 164.835 225.177,166.365 225.177,167.300 225.093 C 168.235 225.009,167.470 224.940,165.600 224.940 C 163.730 224.940,162.965 225.009,163.900 225.093 M232.700 225.093 C 233.635 225.177,235.165 225.177,236.100 225.093 C 237.035 225.009,236.270 224.940,234.400 224.940 C 232.530 224.940,231.765 225.009,232.700 225.093 M162.480 234.300 L 162.400 237.600 165.500 237.521 L 168.600 237.441 165.717 237.303 L 162.833 237.166 162.697 234.083 L 162.561 231.000 162.480 234.300 M174.940 234.400 C 174.940 236.270,175.009 237.035,175.093 236.100 C 175.177 235.165,175.177 233.635,175.093 232.700 C 175.009 231.765,174.940 232.530,174.940 234.400 M224.940 234.400 C 224.940 236.270,225.009 237.035,225.093 236.100 C 225.177 235.165,225.177 233.635,225.093 232.700 C 225.009 231.765,224.940 232.530,224.940 234.400 M237.200 234.382 L 237.200 237.165 234.300 237.303 L 231.400 237.441 234.500 237.521 L 237.600 237.600 237.600 234.600 C 237.600 232.950,237.510 231.600,237.400 231.600 C 237.290 231.600,237.200 232.852,237.200 234.382 M190.500 243.900 C 195.725 243.963,204.275 243.963,209.500 243.900 C 214.725 243.836,210.450 243.785,200.000 243.785 C 189.550 243.785,185.275 243.836,190.500 243.900 M193.694 262.283 L 193.600 274.766 190.500 274.903 L 187.400 275.039 190.493 275.120 L 193.585 275.200 193.700 284.500 L 193.815 293.800 193.908 284.517 L 194.000 275.234 197.100 275.097 L 200.200 274.961 197.106 274.880 L 194.011 274.800 193.900 262.300 L 193.788 249.800 193.694 262.283 M209.382 275.090 L 212.367 275.233 212.510 278.218 L 212.654 281.203 212.627 278.101 L 212.600 275.000 209.499 274.973 L 206.397 274.946 209.382 275.090 M221.789 275.090 L 224.780 275.233 224.905 281.317 L 225.030 287.400 225.015 281.200 L 225.000 275.000 221.899 274.973 L 218.797 274.946 221.789 275.090 M206.080 290.700 L 206.000 294.000 209.200 294.000 L 212.400 294.000 212.400 309.383 L 212.400 324.766 209.300 324.903 L 206.200 325.039 209.294 325.120 L 212.389 325.200 212.500 337.700 L 212.612 350.200 212.706 337.717 L 212.800 325.234 215.900 325.097 L 219.000 324.961 215.905 324.880 L 212.809 324.800 212.705 309.300 L 212.600 293.800 209.517 293.683 L 206.433 293.567 206.297 290.483 L 206.161 287.400 206.080 290.700 M221.795 293.890 L 224.792 294.034 224.902 312.617 L 225.012 331.200 225.006 312.500 L 225.000 293.800 221.899 293.773 L 218.797 293.746 221.795 293.890 M237.385 350.000 C 237.385 360.450,237.436 364.725,237.500 359.500 C 237.563 354.275,237.563 345.725,237.500 340.500 C 237.436 335.275,237.385 339.550,237.385 350.000 M224.984 356.300 L 225.000 362.600 228.000 362.625 L 231.000 362.650 228.110 362.509 L 225.220 362.367 225.094 356.183 L 224.969 349.999 224.984 356.300 " stroke="none" fill="#4c4494" fill-rule="evenodd"></path><path id="path4" d="M212.537 47.000 C 212.539 48.760,212.609 49.430,212.693 48.489 C 212.778 47.549,212.777 46.109,212.691 45.289 C 212.605 44.470,212.536 45.240,212.537 47.000 M193.683 53.100 L 193.800 56.200 200.000 56.200 L 206.200 56.200 206.317 53.100 L 206.434 50.000 200.000 50.000 L 193.566 50.000 193.683 53.100 M190.588 93.890 L 193.579 94.033 193.706 100.017 L 193.832 106.001 193.816 99.900 L 193.800 93.800 190.699 93.773 L 187.597 93.746 190.588 93.890 M214.311 93.893 C 215.251 93.978,216.691 93.977,217.511 93.891 C 218.330 93.805,217.560 93.736,215.800 93.737 C 214.040 93.739,213.370 93.809,214.311 93.893 M156.137 115.800 C 156.139 117.560,156.209 118.230,156.293 117.289 C 156.378 116.349,156.377 114.909,156.291 114.089 C 156.205 113.270,156.136 114.040,156.137 115.800 M243.734 115.600 C 243.734 117.250,243.805 117.925,243.891 117.100 C 243.978 116.275,243.978 114.925,243.891 114.100 C 243.805 113.275,243.734 113.950,243.734 115.600 M162.562 125.000 C 162.562 128.520,162.624 129.906,162.698 128.081 C 162.772 126.256,162.772 123.376,162.697 121.681 C 162.622 119.986,162.561 121.480,162.562 125.000 M237.362 125.000 C 237.362 128.520,237.424 129.906,237.498 128.081 C 237.572 126.256,237.572 123.376,237.497 121.681 C 237.422 119.986,237.361 121.480,237.362 125.000 M156.137 128.200 C 156.139 129.960,156.209 130.630,156.293 129.689 C 156.378 128.749,156.377 127.309,156.291 126.489 C 156.205 125.670,156.136 126.440,156.137 128.200 M256.137 128.200 C 256.139 129.960,256.209 130.630,256.293 129.689 C 256.378 128.749,256.377 127.309,256.291 126.489 C 256.205 125.670,256.136 126.440,256.137 128.200 M262.537 128.200 C 262.539 129.960,262.609 130.630,262.693 129.689 C 262.778 128.749,262.777 127.309,262.691 126.489 C 262.605 125.670,262.536 126.440,262.537 128.200 M170.300 137.493 C 171.235 137.577,172.765 137.577,173.700 137.493 C 174.635 137.409,173.870 137.340,172.000 137.340 C 170.130 137.340,169.365 137.409,170.300 137.493 M226.300 137.493 C 227.235 137.577,228.765 137.577,229.700 137.493 C 230.635 137.409,229.870 137.340,228.000 137.340 C 226.130 137.340,225.365 137.409,226.300 137.493 M131.372 146.800 C 131.372 151.970,131.429 154.085,131.499 151.500 C 131.568 148.915,131.568 144.685,131.499 142.100 C 131.429 139.515,131.372 141.630,131.372 146.800 M231.340 146.800 C 231.340 148.670,231.409 149.435,231.493 148.500 C 231.577 147.565,231.577 146.035,231.493 145.100 C 231.409 144.165,231.340 144.930,231.340 146.800 M168.537 147.000 C 168.539 148.760,168.609 149.430,168.693 148.489 C 168.778 147.549,168.777 146.109,168.691 145.289 C 168.605 144.470,168.536 145.240,168.537 147.000 M218.537 147.000 C 218.539 148.760,218.609 149.430,218.693 148.489 C 218.778 147.549,218.777 146.109,218.691 145.289 C 218.605 144.470,218.536 145.240,218.537 147.000 M131.300 162.699 C 134.765 162.766,140.435 162.766,143.900 162.699 C 147.365 162.633,144.530 162.578,137.600 162.578 C 130.670 162.578,127.835 162.633,131.300 162.699 M159.519 162.698 C 161.344 162.772,164.224 162.772,165.919 162.697 C 167.614 162.622,166.120 162.561,162.600 162.562 C 159.080 162.562,157.694 162.624,159.519 162.698 M234.319 162.698 C 236.144 162.772,239.024 162.772,240.719 162.697 C 242.414 162.622,240.920 162.561,237.400 162.562 C 233.880 162.562,232.494 162.624,234.319 162.698 M254.500 162.699 C 257.085 162.768,261.315 162.768,263.900 162.699 C 266.485 162.629,264.370 162.572,259.200 162.572 C 254.030 162.572,251.915 162.629,254.500 162.699 M162.578 212.400 C 162.578 219.330,162.633 222.165,162.699 218.700 C 162.766 215.235,162.766 209.565,162.699 206.100 C 162.633 202.635,162.578 205.470,162.578 212.400 M237.378 212.400 C 237.378 219.330,237.433 222.165,237.499 218.700 C 237.566 215.235,237.566 209.565,237.499 206.100 C 237.433 202.635,237.378 205.470,237.378 212.400 M156.178 218.800 C 156.178 225.730,156.233 228.565,156.299 225.100 C 156.366 221.635,156.366 215.965,156.299 212.500 C 156.233 209.035,156.178 211.870,156.178 218.800 M243.778 218.800 C 243.778 225.730,243.833 228.565,243.899 225.100 C 243.966 221.635,243.966 215.965,243.899 212.500 C 243.833 209.035,243.778 211.870,243.778 218.800 M178.199 237.490 L 181.200 237.634 181.200 240.607 L 181.200 243.580 174.900 243.706 L 168.600 243.832 175.000 243.816 L 181.400 243.800 181.400 240.600 L 181.400 237.400 178.299 237.373 L 175.197 237.346 178.199 237.490 M218.568 237.740 C 218.454 238.037,218.415 239.522,218.480 241.040 L 218.600 243.800 224.800 243.815 L 231.000 243.830 224.900 243.705 L 218.800 243.580 218.800 240.607 L 218.800 237.634 221.900 237.497 L 225.000 237.361 221.887 237.280 C 219.586 237.221,218.721 237.341,218.568 237.740 M194.000 262.390 L 194.000 274.800 197.000 274.800 L 200.000 274.800 200.000 281.200 L 200.000 287.600 203.200 287.600 L 206.400 287.600 206.400 290.583 L 206.400 293.566 209.500 293.683 L 212.600 293.800 212.705 309.300 L 212.809 324.800 215.805 324.800 L 218.800 324.800 218.800 337.400 L 218.800 350.000 222.000 350.000 L 225.200 350.000 225.200 356.200 L 225.200 362.400 228.200 362.400 L 231.200 362.400 231.200 346.800 L 231.200 331.200 228.000 331.200 L 224.800 331.200 224.800 312.600 L 224.800 294.000 221.800 294.000 L 218.800 294.000 218.800 287.600 L 218.800 281.200 215.600 281.200 L 212.400 281.200 212.400 278.200 L 212.400 275.200 209.406 275.200 L 206.411 275.200 206.306 262.700 L 206.200 250.200 200.100 250.090 L 194.000 249.979 194.000 262.390 M212.573 259.400 C 212.573 264.680,212.630 266.785,212.699 264.077 C 212.768 261.369,212.768 257.049,212.699 254.477 C 212.629 251.905,212.572 254.120,212.573 259.400 M199.995 293.894 L 205.991 294.021 206.103 309.510 L 206.214 325.000 206.207 309.400 L 206.200 293.800 200.100 293.784 L 193.999 293.768 199.995 293.894 " stroke="none" fill="#e49c9c" fill-rule="evenodd"></path></g></svg>